<svg width="24" height="24" viewBox="0 0 24 24" fill="none" xmlns="http://www.w3.org/2000/svg">
<path fill-rule="evenodd" clip-rule="evenodd" d="M20.219 10.367L12 20.4195L3.806 10.3985C3.2785 9.698 3 8.8685 3 8C3 5.794 4.7945 4 7 4C8.8595 4 10.4225 5.2775 10.8685 7H13.1315C13.5775 5.2775 15.14 4 17 4C19.2055 4 21 5.794 21 8C21 8.8685 20.7215 9.698 20.219 10.367ZM17 2C14.9155 2 13.076 3.068 12 4.6865C10.924 3.068 9.0845 2 7 2C3.6915 2 1 4.691 1 8C1 9.306 1.4175 10.551 2.2325 11.6325L10.7085 22H13.2915L21.792 11.601C22.5825 10.551 23 9.306 23 8C23 4.691 20.3085 2 17 2Z" fill="#002F34"/>
</svg>
